<svg xmlns="http://www.w3.org/2000/svg"  viewBox="0 0 24 24" width="24px" height="24px"><path d="M19.994,4.11C20.06,3.518,19.596,3,19,3H5C4.404,3,3.94,3.518,4.006,4.11L5.55,18H18.45L19.994,4.11z" opacity=".35"/><path d="M8.568,21h6.864c1.529,0,2.813-1.149,2.982-2.669L18.45,18H5.55l0.037,0.331C5.755,19.851,7.039,21,8.568,21z"/><path d="M8.547,15.095l-1.019-2.039c-0.315-0.631-0.192-1.392,0.307-1.891l2.562-2.562c0.312-0.312,0.832-0.261,1.077,0.107	l1.059,1.589C12.825,10.737,13.316,11,13.842,11h1.85c0.559,0,0.892,0.623,0.582,1.088l-1.094,1.641	C15.063,13.906,15,14.113,15,14.326V15.3c0,0.386-0.313,0.7-0.7,0.7h-4.288C9.392,16,8.825,15.649,8.547,15.095z M12.883,7.325	l0.697,1.046C13.843,8.764,14.284,9,14.756,9h1.036c0.381,0,0.707-0.272,0.776-0.646l0.207-1.125C16.892,6.589,16.401,6,15.751,6	h-2.159C12.912,6,12.506,6.759,12.883,7.325z"/></svg>